# xmcd
#
# Track frame offsets:
#	150
#	10559
#	21873
#	35161
#	45795
#	59249
#	73578
#	82522
#	93891
#	108419
#	120070
#	134459
#	147342
#	158867
#	171883
#	184608
#
# Disc length: 2630 seconds
#
# Revision: 0
# Processed by: cddbd v1.5.1PL0 Copyright (c) Steve Scherf et al.
# Submitted via: dBpowerAMP V4.0
#
DISCID=c40a4410
DTITLE=Frankie Lane - Greatet Hits (Making Memories) [1]
DYEAR=2002
DGENRE=I Believe
TTITLE0=I Believe
TTITLE1=Answer Me
TTITLE2=Making Memories
TTITLE3=A Woman In Love
TTITLE4=That Lucky Old Sun
TTITLE5=Jezebel
TTITLE6=Sugarbush (2 Doris Day)
TTITLE7=Love Is A Golden Ring
TTITLE8=Jealousy
TTITLE9=Strange Lady In Town
TTITLE10=There Must Be A Reason
TTITLE11=Rain, Rain, Rain
TTITLE12=Rose, Rose I Love You
TTITLE13=Shine
TTITLE14=Nevertheless (I'm In Love With You)
TTITLE15=Granada
EXTD=
EXTT0=
EXTT1=
EXTT2=
EXTT3=
EXTT4=
EXTT5=
EXTT6=
EXTT7=
EXTT8=
EXTT9=
EXTT10=
EXTT11=
EXTT12=
EXTT13=
EXTT14=
EXTT15=
PLAYORDER=
